<?xml version="1.0" encoding="UTF-8" standalone="no"?>
<!-- Created with Inkscape (http://www.inkscape.org/) -->

<svg
   width="300"
   height="300"
   viewBox="0 0 300 300"
   version="1.1"
   id="svg3367"
   inkscape:export-filename="1.svg"
   inkscape:export-xdpi="96"
   inkscape:export-ydpi="96"
   inkscape:version="1.2 (dc2aeda, 2022-05-15)"
   sodipodi:docname="img-logo-pcoin.svg"
   xml:space="preserve"
   xmlns:inkscape="http://www.inkscape.org/namespaces/inkscape"
   xmlns:sodipodi="http://sodipodi.sourceforge.net/DTD/sodipodi-0.dtd"
   xmlns="http://www.w3.org/2000/svg"
   xmlns:svg="http://www.w3.org/2000/svg"><sodipodi:namedview
     id="namedview3369"
     pagecolor="#505050"
     bordercolor="#eeeeee"
     borderopacity="1"
     inkscape:showpageshadow="0"
     inkscape:pageopacity="0"
     inkscape:pagecheckerboard="0"
     inkscape:deskcolor="#505050"
     inkscape:document-units="px"
     showgrid="false"
     inkscape:zoom="0.97942635"
     inkscape:cx="19.909613"
     inkscape:cy="126.09422"
     inkscape:window-width="1920"
     inkscape:window-height="965"
     inkscape:window-x="38"
     inkscape:window-y="25"
     inkscape:window-maximized="1"
     inkscape:current-layer="layer1" /><defs
     id="defs3364"><linearGradient
       id="linearGradient11345"
       inkscape:swatch="solid"><stop
         style="stop-color:#13b9f6;stop-opacity:0.79607844;"
         offset="0"
         id="stop11343" /></linearGradient><rect
       x="260"
       y="230"
       width="224"
       height="303"
       id="rect7025" /><filter
       inkscape:collect="always"
       style="color-interpolation-filters:sRGB"
       id="filter13710"
       x="-0.25529398"
       y="-0.24514985"
       width="1.510588"
       height="1.4902997"><feGaussianBlur
         inkscape:collect="always"
         stdDeviation="0.51555851"
         id="feGaussianBlur13712" /></filter><filter
       inkscape:collect="always"
       style="color-interpolation-filters:sRGB"
       id="filter13714"
       x="-0.17591155"
       y="-0.029448672"
       width="1.3518231"
       height="1.0588973"><feGaussianBlur
         inkscape:collect="always"
         stdDeviation="0.77781007"
         id="feGaussianBlur13716" /></filter></defs><g
     inkscape:label="Layer 1"
     inkscape:groupmode="layer"
     id="layer1"><ellipse
       cx="110.77673"
       cy="43.622253"
       rx="93.671165"
       ry="34.425346"
       id="ellipse15200"
       style="mix-blend-mode:normal;fill:#13b9f6;fill-opacity:0.796078;stroke-width:0.288904;stroke-dasharray:none" /><path
       d="M 109.52727,249.47382 C 68.235911,248.76233 33.544843,239.29395 20.555486,226.37763 l -0.05278,25.28543 c 0,19.04612 41.872188,34.48004 93.565604,34.48004 9.87403,0 19.37839,-0.5473 28.30197,-1.58716 -13.51736,-8.75688 -24.81701,-20.79756 -32.84296,-35.08212 z"
       id="path15198"
       style="mix-blend-mode:normal;fill:#13b9f6;fill-opacity:0.796078;stroke-width:0.288904;stroke-dasharray:none" /><path
       d="m 20.555989,175.55003 -0.05278,26.81789 c 0.158438,-0.16408 0.316817,-0.32843 0.475221,-0.43788 1.003232,17.2948 36.644767,31.4699 82.42432,33.49494 -4.593799,-11.71231 -7.075503,-24.46444 -7.075503,-37.87335 v -0.0546 C 61.37218,195.25298 32.700562,186.8245 20.55604,175.55005 Z"
       id="path15196"
       style="mix-blend-mode:normal;fill:#13b9f6;fill-opacity:0.796078;stroke-width:0.288904;stroke-dasharray:none" /><path
       d="m 19.068115,122.40205 -0.05278,28.18606 c 3.432135,15.65284 35.271894,28.35031 76.510449,31.14157 1.584065,-13.29952 5.702646,-25.83273 11.827716,-36.99768 -40.499326,-0.71148 -74.662385,-9.74197 -88.285367,-22.32995 z"
       id="path15194"
       style="mix-blend-mode:normal;fill:#13b9f6;fill-opacity:0.796078;stroke-width:0.288904;stroke-dasharray:none" /><ellipse
       style="mix-blend-mode:normal;fill:none;fill-opacity:0.796078;stroke:#13b9f6;stroke-width:20;stroke-dasharray:none;stroke-opacity:0.796078;paint-order:markers stroke fill"
       id="path16430"
       cx="197.90536"
       cy="195.04034"
       ry="84.613251"
       rx="76.26255" /><path
       d="m 113.88807,129.63161 c 17.84715,-23.58872 45.56829,-38.749018 76.7744,-38.749018 4.64664,0 9.24042,0.328385 13.78141,0.985143 V 70.304014 c -14.09817,13.135268 -50.63738,22.494139 -93.56555,22.494139 -42.664204,0 -79.097759,-9.249406 -93.354367,-22.329956 v 27.748259 c 7.128287,30.265804 95.360867,31.469894 96.364107,31.415154 z"
       id="path15192-1"
       style="mix-blend-mode:normal;fill:#13b9f6;fill-opacity:0.796078;stroke-width:0.288904;stroke-dasharray:none" /><ellipse
       style="mix-blend-mode:normal;fill:none;fill-opacity:0.7;stroke:#24b0e5;stroke-width:13.4452;stroke-linecap:round;stroke-linejoin:round;stroke-dasharray:none;stroke-opacity:1;paint-order:normal;filter:url(#filter13710)"
       id="path5499"
       cx="145.80284"
       cy="162.31612"
       rx="15.589753"
       ry="16.234846"
       transform="matrix(1.4093325,0,0,1.5700421,-5.6714207,-78.297067)" /><rect
       style="mix-blend-mode:normal;fill:#24b0e5;fill-opacity:1;stroke:none;stroke-width:0.681252;stroke-dasharray:none;stroke-opacity:0.796078;paint-order:stroke markers fill;filter:url(#filter13714)"
       id="rect13708"
       width="10.611835"
       height="63.389759"
       x="177.31448"
       y="74.75956"
       transform="matrix(1.4149852,-0.65648718,0.4935457,1.418064,-127.57247,169.19948)" /></g></svg>
